HIERARCHY
ROOT root
{
	OFFSET 0.000000 0.000000 0.000000
	CHANNELS 6 Xposition Yposition Zposition Zrotation Yrotation Xrotation
	JOINT lhip
	{
		OFFSET 0.058581 -0.082280 -0.017664
		CHANNELS 3 Zrotation Yrotation Xrotation
		JOINT lknee
		{
			OFFSET 0.043451 -0.386469 0.008037
			CHANNELS 3 Zrotation Yrotation Xrotation
			JOINT lankle
			{
				OFFSET -0.014790 -0.426874 -0.037428
				CHANNELS 3 Zrotation Yrotation Xrotation
				JOINT ltoe
				{
					OFFSET 0.041054 -0.060286 0.122042
					CHANNELS 3 Zrotation Yrotation Xrotation
					End Site
					{
						OFFSET 0.000000 0.000000 0.000000
					}
				}
			}
		}
	}
	JOINT rhip
	{
		OFFSET -0.060310 -0.090513 -0.013543
		CHANNELS 3 Zrotation Yrotation Xrotation
		JOINT rknee
		{
			OFFSET -0.043257 -0.383688 -0.004843
			CHANNELS 3 Zrotation Yrotation Xrotation
			JOINT rankle
			{
				OFFSET 0.019056 -0.420046 -0.034562
				CHANNELS 3 Zrotation Yrotation Xrotation
				JOINT rtoe
				{
					OFFSET -0.034840 -0.062106 0.130323
					CHANNELS 3 Zrotation Yrotation Xrotation
					End Site
					{
						OFFSET 0.000000 0.000000 0.000000
					}
				}
			}
		}
	}
	JOINT lowerback
	{
		OFFSET 0.004439 0.124404 -0.038385
		CHANNELS 3 Zrotation Yrotation Xrotation
		JOINT upperback
		{
			OFFSET 0.004488 0.137956 0.026820
			CHANNELS 3 Zrotation Yrotation Xrotation
			JOINT chest
			{
				OFFSET -0.002265 0.056032 0.002855
				CHANNELS 3 Zrotation Yrotation Xrotation
				JOINT lowerneck
				{
					OFFSET -0.013390 0.211636 -0.033468
					CHANNELS 3 Zrotation Yrotation Xrotation
					JOINT upperneck
					{
						OFFSET 0.010113 0.088937 0.050410
						CHANNELS 3 Zrotation Yrotation Xrotation
						End Site
						{
							OFFSET 0.000000 0.000000 0.000000
						}
					}
				}
				JOINT lclavicle
				{
					OFFSET 0.071702 0.114000 -0.018898
					CHANNELS 3 Zrotation Yrotation Xrotation
					JOINT lshoulder
					{
						OFFSET 0.122921 0.045205 -0.019046
						CHANNELS 3 Zrotation Yrotation Xrotation
						JOINT lelbow
						{
							OFFSET 0.255332 -0.015649 -0.022946
							CHANNELS 3 Zrotation Yrotation Xrotation
							JOINT lwrist
							{
								OFFSET 0.265709 0.012698 -0.007375
								CHANNELS 3 Zrotation Yrotation Xrotation
								End Site
								{
									OFFSET 0.000000 0.000000 0.000000
								}
							}
						}
					}
				}
				JOINT rclavicle
				{
					OFFSET -0.082954 0.112472 -0.023707
					CHANNELS 3 Zrotation Yrotation Xrotation
					JOINT rshoulder
					{
						OFFSET -0.113228 0.046853 -0.008472
						CHANNELS 3 Zrotation Yrotation Xrotation
						JOINT relbow
						{
							OFFSET -0.260127 -0.014369 -0.031269
							CHANNELS 3 Zrotation Yrotation Xrotation
							JOINT rwrist
							{
								OFFSET -0.269108 0.006794 -0.006027
								CHANNELS 3 Zrotation Yrotation Xrotation
								End Site
								{
									OFFSET 0.000000 0.000000 0.000000
								}
							}
						}
					}
				}
			}
		}
	}
}
MOTION
Frames: 16
Frame Time: 0.033333
1.660675 0.272402 0.989185 -86.171549 -0.680852 99.723128 0.486800 -7.155895 -26.792073 -5.278574 -9.968960 25.208320 4.223782 11.419454 -18.879614 0.000000 -0.000000 0.000000 1.865216 2.899133 -24.454997 1.449001 1.340594 24.813185 1.267346 -10.294673 -17.625367 0.000000 -0.000000 0.000000 -1.533713 2.895157 24.668434 2.399034 -3.542953 -0.532455 1.402054 -2.255188 5.956877 -0.169758 1.058890 -3.493514 7.067938 -3.468320 -11.008457 -14.906359 2.454975 9.189509 -47.516523 1.500474 8.113085 2.087099 -45.057046 18.822556 10.111285 -10.188402 -8.028664 15.411502 -3.536989 5.806983 61.155780 -11.547375 7.646391 -14.663182 34.916814 5.627774 1.494728 5.848156 -10.818168 
1.665032 0.272328 0.974720 -86.357305 -1.100309 101.855222 1.049051 -8.412646 -32.859079 -6.577044 -8.376157 31.799964 4.813895 12.810419 -21.877792 0.000000 -0.000000 0.000000 0.805980 3.467278 -30.598953 1.824300 0.544477 31.665367 1.362354 -10.545709 -20.854475 0.000000 -0.000000 0.000000 -1.542520 3.019577 27.672545 2.643477 -3.120901 -1.080954 1.475072 -2.150836 6.328464 -0.624756 1.132921 -5.873674 7.271278 -3.580463 -13.639160 -14.711218 3.675082 9.281606 -46.621903 3.619420 8.152718 0.400556 -46.242717 19.728721 10.947026 -10.541769 -8.367429 15.488138 -4.598163 6.470056 60.814222 -13.654636 6.923464 -14.511454 35.469357 5.139209 1.101272 5.926038 -10.683508 
1.668522 0.272321 0.953932 -86.323361 -1.465397 103.552971 1.619377 -8.857257 -38.951304 -8.304195 -6.899911 39.061040 5.726552 13.980668 -25.530520 0.000000 -0.000000 0.000000 -0.359516 3.763476 -36.503688 2.106468 -0.651369 39.181049 1.390669 -10.621738 -24.418052 0.000000 -0.000000 0.000000 -1.399601 2.832075 31.235814 2.769141 -2.679959 -1.714407 1.544488 -2.052445 6.785826 -1.115965 1.029928 -8.579659 7.338257 -3.536978 -16.456510 -14.999055 4.581468 9.108478 -46.048854 5.898971 7.969716 -1.007017 -47.506788 20.510806 11.815067 -10.582770 -7.828358 15.782250 -5.181230 6.771665 60.791530 -15.543791 6.077864 -14.186183 36.076263 4.792471 0.737303 5.924240 -9.910115 
1.671495 0.271524 0.928007 -86.633483 -2.071993 105.630032 3.024783 -10.456953 -45.724248 -8.896897 -3.184305 46.350583 6.882654 15.297233 -28.705597 0.000000 -0.000000 0.000000 -2.540356 4.200743 -42.982538 3.386278 -1.978284 46.777768 1.058037 -11.569790 -28.024672 0.000000 -0.000000 0.000000 -1.469010 2.547943 33.786517 2.393375 -2.416943 -1.809923 1.638525 -2.058490 6.967569 -2.030163 0.393095 -11.398499 8.159515 -2.748400 -18.132691 -15.179070 3.207009 8.861925 -47.189078 9.892708 5.334467 -2.299936 -48.349607 20.250144 12.975421 -12.109501 -5.708953 15.405775 -2.611226 6.500078 63.427373 -18.206070 4.014396 -15.660325 35.438798 1.439055 3.687929 5.673402 -6.807142 
1.670474 0.271605 0.898676 -86.828948 -1.884492 107.048425 4.546281 -10.069892 -52.040379 -9.448013 -0.040568 54.764196 7.069819 15.371218 -31.804707 0.000000 -0.000000 0.000000 -3.336978 4.117708 -48.355942 3.018316 -4.183557 53.911724 0.612976 -11.578805 -32.686780 0.000000 -0.000000 0.000000 -1.122459 2.208869 36.786715 2.294975 -1.948622 -2.621406 1.620341 -1.942328 7.328659 -2.259295 0.289731 -13.821312 8.202552 -2.691134 -19.596572 -15.825957 2.912887 8.474809 -48.552031 11.644516 4.721603 -1.698517 -47.938826 19.578183 13.324019 -12.341787 -6.077524 15.839314 -1.452159 6.158573 64.443611 -18.773383 3.383216 -15.610532 34.332408 1.365558 4.631487 5.615246 -6.996935 
1.664945 0.271184 0.866678 -87.296275 -1.438633 107.932002 6.109158 -9.012957 -57.419912 -9.451997 3.285463 63.115878 6.713615 14.828500 -34.784048 0.000000 -0.000000 0.000000 -4.555247 4.469092 -52.926004 1.575126 -7.613192 60.938866 0.487560 -11.072798 -37.831697 0.000000 -0.000000 0.000000 -0.892735 1.891262 39.553829 2.188729 -1.406409 -3.273908 1.568509 -1.779059 6.780640 -1.967200 0.603936 -14.844966 7.731503 -3.057551 -20.596863 -17.515502 2.422700 8.295414 -49.777830 12.409131 4.482158 0.842003 -47.030459 16.556846 12.393066 -12.365751 -5.156156 16.985981 -0.159694 5.362092 64.503286 -18.481660 3.577531 -15.786884 32.585812 0.840132 5.345255 5.385225 -7.633122 
1.655096 0.270995 0.834971 -88.309492 -0.891996 108.221886 7.344034 -7.460400 -61.390763 -9.325022 6.266447 71.392099 6.422129 14.777060 -37.383964 0.000000 -0.000000 0.000000 -5.313287 4.604852 -56.685730 1.001049 -9.184875 69.233970 0.308866 -9.581080 -40.162754 0.000000 -0.000000 0.000000 -1.091434 1.921494 42.024732 1.874966 -0.882341 -4.089068 1.443780 -1.594349 6.475958 -1.401837 0.680933 -16.524419 7.496030 -3.244982 -20.706144 -19.995132 1.357726 7.560034 -50.354092 12.143507 4.011496 3.712468 -45.822683 12.639091 12.538277 -12.322544 -4.043272 18.833068 1.876560 4.716707 63.896382 -16.508584 3.832190 -16.044895 30.992828 -0.502397 4.476267 5.276921 -7.562241 
1.641253 0.270944 0.807100 -88.823300 -0.222344 108.197606 7.823248 -6.094538 -63.807352 -8.640208 7.286072 78.169395 6.624983 14.664806 -40.454934 0.000000 -0.000000 0.000000 -5.110142 4.360303 -59.097068 1.129510 -9.604819 76.883497 0.274155 -8.745107 -40.829052 0.000000 -0.000000 0.000000 -1.182713 1.669450 43.732576 1.664402 -0.616353 -4.983720 1.281043 -1.531153 6.419563 -0.626152 0.517912 -18.303196 7.342123 -2.898760 -20.403549 -23.053401 -0.869662 7.257131 -50.648751 10.139366 3.724838 7.859774 -44.475851 6.842626 14.442614 -11.677765 -3.688384 20.872948 5.056795 4.307421 62.421839 -12.783375 4.745112 -16.131718 29.449030 -3.135569 2.083957 4.924164 -7.509045 
1.622190 0.269530 0.786023 -89.741637 0.268133 107.520722 8.002800 -5.770750 -64.015799 -7.980276 8.178196 84.191218 5.368276 14.681578 -43.151839 0.000000 -0.000000 0.000000 -5.278096 5.065795 -59.246204 -0.940349 -10.841251 81.427174 0.567761 -8.872681 -44.670363 0.000000 -0.000000 0.000000 -1.393943 1.604979 44.856264 1.244883 -0.720058 -5.339240 1.060269 -1.557856 5.905171 0.336361 1.316967 -19.676435 6.888595 -3.263693 -20.168704 -25.402246 -4.278410 6.799399 -50.958477 6.324910 4.340927 12.136340 -41.761567 1.135239 16.864697 -10.713533 -3.023384 22.626788 8.699863 3.750746 60.086348 -7.275864 6.170118 -15.922872 28.409480 -5.144533 -2.184416 5.251858 -7.002649 
1.598890 0.268497 0.774763 -90.629499 0.557073 106.837077 7.820940 -6.083413 -62.373931 -7.924391 8.387881 87.830571 4.710526 15.391502 -45.231784 0.000000 -0.000000 0.000000 -4.931344 6.291427 -58.158393 0.228594 -9.709041 85.807447 1.549058 -7.987917 -43.576230 0.000000 -0.000000 0.000000 -1.926501 1.605555 44.491921 1.238334 -1.097634 -5.209564 0.758583 -1.809594 5.818561 0.911637 1.965544 -21.998187 6.477573 -3.428728 -19.479931 -26.897287 -8.569876 5.581844 -50.318898 0.599324 5.190197 15.914522 -39.939751 -6.337022 20.392640 -10.510834 -1.731031 24.626646 12.453867 2.946543 56.016555 0.226713 7.795858 -16.067630 29.016878 -8.085264 -4.312569 5.463893 -5.548695 
1.571075 0.268014 0.774750 -91.454202 0.743757 105.849746 7.756278 -7.600498 -58.795643 -7.194840 8.583787 89.193762 3.839833 16.111027 -46.271720 0.000000 -0.000000 0.000000 -3.866654 7.902132 -54.730513 -0.006075 -8.648431 86.660622 2.237715 -9.043925 -43.652594 0.000000 -0.000000 0.000000 -2.384136 1.817971 43.413792 1.353922 -1.831634 -5.076049 0.865017 -1.941944 5.078357 0.507834 2.584680 -22.934438 6.246417 -3.763257 -18.270793 -26.910135 -14.236690 4.937070 -48.564659 -5.616450 5.555258 19.174181 -39.838305 -12.054745 20.667666 -8.896668 -1.359749 25.665345 16.608464 2.729726 51.577503 7.616944 7.422852 -17.862510 33.611008 -12.974800 -6.673618 5.915563 -4.474827 
1.537938 0.268241 0.787579 -91.835246 1.033459 104.813697 5.968180 -7.945288 -52.846934 -6.483045 6.805708 87.520974 3.344318 16.438276 -46.651284 0.000000 -0.000000 0.000000 -1.821288 8.668836 -49.357183 -0.133933 -7.178626 84.904175 2.882000 -9.615819 -42.065952 0.000000 -0.000000 0.000000 -2.513389 1.677177 41.780691 1.327503 -2.527886 -5.417920 1.145243 -1.787298 4.711000 0.078872 2.482192 -23.423245 6.205896 -3.754915 -16.893239 -24.676931 -19.628334 3.280757 -45.703425 -12.129476 4.837579 23.849872 -44.497002 -18.731138 21.044877 -10.499007 -0.282463 23.704241 20.206890 1.292799 48.247740 13.262962 6.598985 -23.561320 44.104429 -19.621857 -9.884151 9.102465 -3.692084 
1.496789 0.269656 0.812360 -91.892715 1.430730 103.818485 4.649986 -7.453586 -45.527456 -6.190621 5.337000 83.297237 3.295731 15.795948 -43.922850 0.000000 -0.000000 0.000000 0.509414 7.738460 -42.152826 0.441330 -5.746471 80.004446 3.226876 -9.737853 -38.611564 0.000000 -0.000000 0.000000 -2.100279 1.708548 39.267110 1.467166 -3.283976 -5.801555 1.331149 -1.508122 4.219217 -0.529821 2.815225 -24.253247 6.053290 -3.869899 -13.377467 -19.158825 -24.179561 0.820211 -42.200158 -17.533455 3.574485 29.795751 -52.628532 -23.820622 21.524764 -11.901746 -0.576059 18.256791 22.631840 -1.610270 46.109331 16.575360 5.982762 -38.807473 57.275815 -31.496617 -10.505927 11.183690 -4.924027 
1.441541 0.273155 0.852552 -92.146183 1.071339 102.837875 2.820409 -5.785644 -36.279174 -7.140070 3.521551 75.687060 3.491408 14.508642 -36.937378 0.000000 -0.000000 0.000000 1.739663 5.768983 -33.403099 1.730321 -3.779677 72.459469 3.719951 -9.190367 -30.669949 0.000000 -0.000000 0.000000 -2.676984 2.015366 35.747030 1.395493 -3.999043 -7.317775 1.812822 -1.374828 4.246657 -1.334540 2.286579 -23.036269 6.236843 -2.912863 -9.372867 -11.517020 -26.179594 -2.409453 -39.509432 -20.094314 2.528525 39.117900 -61.674909 -29.886531 22.480688 -12.077205 -2.165253 9.810347 23.342697 -6.616970 46.510151 17.292990 6.127267 -65.780918 64.616694 -53.993925 -10.144325 12.874548 -5.699905 
1.366802 0.275781 0.907618 -92.745476 0.608332 101.492168 0.874731 -3.202479 -24.084104 -7.386900 0.955141 63.750921 3.341262 12.170782 -25.207672 0.000000 -0.000000 0.000000 1.491254 1.981277 -22.214601 3.138284 -1.615041 60.793999 4.131622 -6.933486 -17.030193 0.000000 -0.000000 0.000000 -2.779207 2.631217 28.259997 0.709670 -4.987272 -5.345808 1.766760 -1.215665 4.490047 -2.263640 1.321353 -17.080969 7.273618 -1.202551 -8.200492 -3.342567 -25.643278 -4.899650 -39.946573 -21.103290 1.613788 50.736715 -69.156010 -38.214237 24.898868 -11.891158 -6.159639 0.450648 21.585736 -9.848238 49.386960 16.854923 5.415783 -88.486640 66.353275 -73.593638 -11.961170 14.263647 -7.292887 
1.278509 0.279424 0.977687 -91.960048 0.302103 101.209023 1.553884 -2.435981 -12.968294 -7.136298 -0.189316 48.121280 1.119426 7.445377 -3.997759 0.000000 -0.000000 0.000000 -0.435996 -1.362310 -10.651998 5.010366 -0.681137 43.774787 5.550373 -4.775382 6.661464 0.000000 -0.000000 0.000000 -3.705905 3.045332 16.544925 1.345249 -5.910730 -0.266637 1.699150 -1.151482 4.289333 -3.781527 -0.515719 -7.549677 8.300447 0.700926 -5.834373 1.215303 -23.005592 -3.765689 -42.907014 -24.408974 1.252286 58.102194 -72.500922 -43.820580 24.886686 -13.866542 -6.248428 -3.714699 17.721057 -8.076342 52.300467 17.154937 5.353108 -102.542511 65.148032 -84.962445 -8.068466 15.035738 -7.245347 
